<svg xmlns="http://www.w3.org/2000/svg" width="250" height="250" fill="none" viewBox="0 0 250 250"><rect width="250" height="250" fill="#fff"/><path fill="#000" d="M15 15H22.5758V22.5758H15V15Z"/><path fill="#000" d="M22.5758 15H30.1515V22.5758H22.5758V15Z"/><path fill="#000" d="M30.1515 15H37.7273V22.5758H30.1515V15Z"/><path fill="#000" d="M37.7273 15H45.303V22.5758H37.7273V15Z"/><path fill="#000" d="M45.303 15H52.8788V22.5758H45.303V15Z"/><path fill="#000" d="M52.8788 15H60.4545V22.5758H52.8788V15Z"/><path fill="#000" d="M60.4545 15H68.0303V22.5758H60.4545V15Z"/><path fill="#000" d="M75.6061 15H83.1818V22.5758H75.6061V15Z"/><path fill="#000" d="M98.3333 15H105.909V22.5758H98.3333V15Z"/><path fill="#000" d="M113.485 15H121.061V22.5758H113.485V15Z"/><path fill="#000" d="M121.061 15H128.636V22.5758H121.061V15Z"/><path fill="#000" d="M166.515 15H174.091V22.5758H166.515V15Z"/><path fill="#000" d="M181.667 15H189.242V22.5758H181.667V15Z"/><path fill="#000" d="M189.242 15H196.818V22.5758H189.242V15Z"/><path fill="#000" d="M196.818 15H204.394V22.5758H196.818V15Z"/><path fill="#000" d="M204.394 15H211.97V22.5758H204.394V15Z"/><path fill="#000" d="M211.97 15H219.545V22.5758H211.97V15Z"/><path fill="#000" d="M219.545 15H227.121V22.5758H219.545V15Z"/><path fill="#000" d="M227.121 15H234.697V22.5758H227.121V15Z"/><path fill="#000" d="M15 22.5758H22.5758V30.1515H15V22.5758Z"/><path fill="#000" d="M60.4545 22.5758H68.0303V30.1515H60.4545V22.5758Z"/><path fill="#000" d="M98.3333 22.5758H105.909V30.1515H98.3333V22.5758Z"/><path fill="#000" d="M105.909 22.5758H113.485V30.1515H105.909V22.5758Z"/><path fill="#000" d="M113.485 22.5758H121.061V30.1515H113.485V22.5758Z"/><path fill="#000" d="M121.061 22.5758H128.636V30.1515H121.061V22.5758Z"/><path fill="#000" d="M136.212 22.5758H143.788V30.1515H136.212V22.5758Z"/><path fill="#000" d="M151.364 22.5758H158.939V30.1515H151.364V22.5758Z"/><path fill="#000" d="M166.515 22.5758H174.091V30.1515H166.515V22.5758Z"/><path fill="#000" d="M181.667 22.5758H189.242V30.1515H181.667V22.5758Z"/><path fill="#000" d="M227.121 22.5758H234.697V30.1515H227.121V22.5758Z"/><path fill="#000" d="M15 30.1515H22.5758V37.7273H15V30.1515Z"/><path fill="#000" d="M30.1515 30.1515H37.7273V37.7273H30.1515V30.1515Z"/><path fill="#000" d="M37.7273 30.1515H45.303V37.7273H37.7273V30.1515Z"/><path fill="#000" d="M45.303 30.1515H52.8788V37.7273H45.303V30.1515Z"/><path fill="#000" d="M60.4545 30.1515H68.0303V37.7273H60.4545V30.1515Z"/><path fill="#000" d="M75.6061 30.1515H83.1818V37.7273H75.6061V30.1515Z"/><path fill="#000" d="M83.1818 30.1515H90.7576V37.7273H83.1818V30.1515Z"/><path fill="#000" d="M143.788 30.1515H151.364V37.7273H143.788V30.1515Z"/><path fill="#000" d="M181.667 30.1515H189.242V37.7273H181.667V30.1515Z"/><path fill="#000" d="M196.818 30.1515H204.394V37.7273H196.818V30.1515Z"/><path fill="#000" d="M204.394 30.1515H211.97V37.7273H204.394V30.1515Z"/><path fill="#000" d="M211.97 30.1515H219.545V37.7273H211.97V30.1515Z"/><path fill="#000" d="M227.121 30.1515H234.697V37.7273H227.121V30.1515Z"/><path fill="#000" d="M15 37.7273H22.5758V45.303H15V37.7273Z"/><path fill="#000" d="M30.1515 37.7273H37.7273V45.303H30.1515V37.7273Z"/><path fill="#000" d="M37.7273 37.7273H45.303V45.303H37.7273V37.7273Z"/><path fill="#000" d="M45.303 37.7273H52.8788V45.303H45.303V37.7273Z"/><path fill="#000" d="M60.4545 37.7273H68.0303V45.303H60.4545V37.7273Z"/><path fill="#000" d="M75.6061 37.7273H83.1818V45.303H75.6061V37.7273Z"/><path fill="#000" d="M83.1818 37.7273H90.7576V45.303H83.1818V37.7273Z"/><path fill="#000" d="M90.7576 37.7273H98.3333V45.303H90.7576V37.7273Z"/><path fill="#000" d="M98.3333 37.7273H105.909V45.303H98.3333V37.7273Z"/><path fill="#000" d="M105.909 37.7273H113.485V45.303H105.909V37.7273Z"/><path fill="#000" d="M113.485 37.7273H121.061V45.303H113.485V37.7273Z"/><path fill="#000" d="M121.061 37.7273H128.636V45.303H121.061V37.7273Z"/><path fill="#000" d="M128.636 37.7273H136.212V45.303H128.636V37.7273Z"/><path fill="#000" d="M136.212 37.7273H143.788V45.303H136.212V37.7273Z"/><path fill="#000" d="M158.939 37.7273H166.515V45.303H158.939V37.7273Z"/><path fill="#000" d="M166.515 37.7273H174.091V45.303H166.515V37.7273Z"/><path fill="#000" d="M181.667 37.7273H189.242V45.303H181.667V37.7273Z"/><path fill="#000" d="M196.818 37.7273H204.394V45.303H196.818V37.7273Z"/><path fill="#000" d="M204.394 37.7273H211.97V45.303H204.394V37.7273Z"/><path fill="#000" d="M211.97 37.7273H219.545V45.303H211.97V37.7273Z"/><path fill="#000" d="M227.121 37.7273H234.697V45.303H227.121V37.7273Z"/><path fill="#000" d="M15 45.303H22.5758V52.8788H15V45.303Z"/><path fill="#000" d="M30.1515 45.303H37.7273V52.8788H30.1515V45.303Z"/><path fill="#000" d="M37.7273 45.303H45.303V52.8788H37.7273V45.303Z"/><path fill="#000" d="M45.303 45.303H52.8788V52.8788H45.303V45.303Z"/><path fill="#000" d="M60.4545 45.303H68.0303V52.8788H60.4545V45.303Z"/><path fill="#000" d="M83.1818 45.303H90.7576V52.8788H83.1818V45.303Z"/><path fill="#000" d="M98.3333 45.303H105.909V52.8788H98.3333V45.303Z"/><path fill="#000" d="M105.909 45.303H113.485V52.8788H105.909V45.303Z"/><path fill="#000" d="M113.485 45.303H121.061V52.8788H113.485V45.303Z"/><path fill="#000" d="M128.636 45.303H136.212V52.8788H128.636V45.303Z"/><path fill="#000" d="M136.212 45.303H143.788V52.8788H136.212V45.303Z"/><path fill="#000" d="M143.788 45.303H151.364V52.8788H143.788V45.303Z"/><path fill="#000" d="M151.364 45.303H158.939V52.8788H151.364V45.303Z"/><path fill="#000" d="M181.667 45.303H189.242V52.8788H181.667V45.303Z"/><path fill="#000" d="M196.818 45.303H204.394V52.8788H196.818V45.303Z"/><path fill="#000" d="M204.394 45.303H211.97V52.8788H204.394V45.303Z"/><path fill="#000" d="M211.97 45.303H219.545V52.8788H211.97V45.303Z"/><path fill="#000" d="M227.121 45.303H234.697V52.8788H227.121V45.303Z"/><path fill="#000" d="M15 52.8788H22.5758V60.4545H15V52.8788Z"/><path fill="#000" d="M60.4545 52.8788H68.0303V60.4545H60.4545V52.8788Z"/><path fill="#000" d="M75.6061 52.8788H83.1818V60.4545H75.6061V52.8788Z"/><path fill="#000" d="M98.3333 52.8788H105.909V60.4545H98.3333V52.8788Z"/><path fill="#000" d="M128.636 52.8788H136.212V60.4545H128.636V52.8788Z"/><path fill="#000" d="M143.788 52.8788H151.364V60.4545H143.788V52.8788Z"/><path fill="#000" d="M151.364 52.8788H158.939V60.4545H151.364V52.8788Z"/><path fill="#000" d="M158.939 52.8788H166.515V60.4545H158.939V52.8788Z"/><path fill="#000" d="M181.667 52.8788H189.242V60.4545H181.667V52.8788Z"/><path fill="#000" d="M227.121 52.8788H234.697V60.4545H227.121V52.8788Z"/><path fill="#000" d="M15 60.4545H22.5758V68.0303H15V60.4545Z"/><path fill="#000" d="M22.5758 60.4545H30.1515V68.0303H22.5758V60.4545Z"/><path fill="#000" d="M30.1515 60.4545H37.7273V68.0303H30.1515V60.4545Z"/><path fill="#000" d="M37.7273 60.4545H45.303V68.0303H37.7273V60.4545Z"/><path fill="#000" d="M45.303 60.4545H52.8788V68.0303H45.303V60.4545Z"/><path fill="#000" d="M52.8788 60.4545H60.4545V68.0303H52.8788V60.4545Z"/><path fill="#000" d="M60.4545 60.4545H68.0303V68.0303H60.4545V60.4545Z"/><path fill="#000" d="M75.6061 60.4545H83.1818V68.0303H75.6061V60.4545Z"/><path fill="#000" d="M90.7576 60.4545H98.3333V68.0303H90.7576V60.4545Z"/><path fill="#000" d="M105.909 60.4545H113.485V68.0303H105.909V60.4545Z"/><path fill="#000" d="M121.061 60.4545H128.636V68.0303H121.061V60.4545Z"/><path fill="#000" d="M136.212 60.4545H143.788V68.0303H136.212V60.4545Z"/><path fill="#000" d="M151.364 60.4545H158.939V68.0303H151.364V60.4545Z"/><path fill="#000" d="M166.515 60.4545H174.091V68.0303H166.515V60.4545Z"/><path fill="#000" d="M181.667 60.4545H189.242V68.0303H181.667V60.4545Z"/><path fill="#000" d="M189.242 60.4545H196.818V68.0303H189.242V60.4545Z"/><path fill="#000" d="M196.818 60.4545H204.394V68.0303H196.818V60.4545Z"/><path fill="#000" d="M204.394 60.4545H211.97V68.0303H204.394V60.4545Z"/><path fill="#000" d="M211.97 60.4545H219.545V68.0303H211.97V60.4545Z"/><path fill="#000" d="M219.545 60.4545H227.121V68.0303H219.545V60.4545Z"/><path fill="#000" d="M227.121 60.4545H234.697V68.0303H227.121V60.4545Z"/><path fill="#000" d="M75.6061 68.0303H83.1818V75.6061H75.6061V68.0303Z"/><path fill="#000" d="M105.909 68.0303H113.485V75.6061H105.909V68.0303Z"/><path fill="#000" d="M121.061 68.0303H128.636V75.6061H121.061V68.0303Z"/><path fill="#000" d="M128.636 68.0303H136.212V75.6061H128.636V68.0303Z"/><path fill="#000" d="M136.212 68.0303H143.788V75.6061H136.212V68.0303Z"/><path fill="#000" d="M158.939 68.0303H166.515V75.6061H158.939V68.0303Z"/><path fill="#000" d="M166.515 68.0303H174.091V75.6061H166.515V68.0303Z"/><path fill="#000" d="M22.5758 75.6061H30.1515V83.1818H22.5758V75.6061Z"/><path fill="#000" d="M37.7273 75.6061H45.303V83.1818H37.7273V75.6061Z"/><path fill="#000" d="M52.8788 75.6061H60.4545V83.1818H52.8788V75.6061Z"/><path fill="#000" d="M60.4545 75.6061H68.0303V83.1818H60.4545V75.6061Z"/><path fill="#000" d="M68.0303 75.6061H75.6061V83.1818H68.0303V75.6061Z"/><path fill="#000" d="M75.6061 75.6061H83.1818V83.1818H75.6061V75.6061Z"/><path fill="#000" d="M90.7576 75.6061H98.3333V83.1818H90.7576V75.6061Z"/><path fill="#000" d="M98.3333 75.6061H105.909V83.1818H98.3333V75.6061Z"/><path fill="#000" d="M105.909 75.6061H113.485V83.1818H105.909V75.6061Z"/><path fill="#000" d="M113.485 75.6061H121.061V83.1818H113.485V75.6061Z"/><path fill="#000" d="M121.061 75.6061H128.636V83.1818H121.061V75.6061Z"/><path fill="#000" d="M136.212 75.6061H143.788V83.1818H136.212V75.6061Z"/><path fill="#000" d="M143.788 75.6061H151.364V83.1818H143.788V75.6061Z"/><path fill="#000" d="M174.091 75.6061H181.667V83.1818H174.091V75.6061Z"/><path fill="#000" d="M181.667 75.6061H189.242V83.1818H181.667V75.6061Z"/><path fill="#000" d="M189.242 75.6061H196.818V83.1818H189.242V75.6061Z"/><path fill="#000" d="M204.394 75.6061H211.97V83.1818H204.394V75.6061Z"/><path fill="#000" d="M211.97 75.6061H219.545V83.1818H211.97V75.6061Z"/><path fill="#000" d="M227.121 75.6061H234.697V83.1818H227.121V75.6061Z"/><path fill="#000" d="M30.1515 83.1818H37.7273V90.7576H30.1515V83.1818Z"/><path fill="#000" d="M68.0303 83.1818H75.6061V90.7576H68.0303V83.1818Z"/><path fill="#000" d="M75.6061 83.1818H83.1818V90.7576H75.6061V83.1818Z"/><path fill="#000" d="M113.485 83.1818H121.061V90.7576H113.485V83.1818Z"/><path fill="#000" d="M128.636 83.1818H136.212V90.7576H128.636V83.1818Z"/><path fill="#000" d="M158.939 83.1818H166.515V90.7576H158.939V83.1818Z"/><path fill="#000" d="M166.515 83.1818H174.091V90.7576H166.515V83.1818Z"/><path fill="#000" d="M181.667 83.1818H189.242V90.7576H181.667V83.1818Z"/><path fill="#000" d="M211.97 83.1818H219.545V90.7576H211.97V83.1818Z"/><path fill="#000" d="M227.121 83.1818H234.697V90.7576H227.121V83.1818Z"/><path fill="#000" d="M22.5758 90.7576H30.1515V98.3333H22.5758V90.7576Z"/><path fill="#000" d="M30.1515 90.7576H37.7273V98.3333H30.1515V90.7576Z"/><path fill="#000" d="M45.303 90.7576H52.8788V98.3333H45.303V90.7576Z"/><path fill="#000" d="M60.4545 90.7576H68.0303V98.3333H60.4545V90.7576Z"/><path fill="#000" d="M68.0303 90.7576H75.6061V98.3333H68.0303V90.7576Z"/><path fill="#000" d="M83.1818 90.7576H90.7576V98.3333H83.1818V90.7576Z"/><path fill="#000" d="M166.515 90.7576H174.091V98.3333H166.515V90.7576Z"/><path fill="#000" d="M181.667 90.7576H189.242V98.3333H181.667V90.7576Z"/><path fill="#000" d="M204.394 90.7576H211.97V98.3333H204.394V90.7576Z"/><path fill="#000" d="M219.545 90.7576H227.121V98.3333H219.545V90.7576Z"/><path fill="#000" d="M30.1515 98.3333H37.7273V105.909H30.1515V98.3333Z"/><path fill="#000" d="M37.7273 98.3333H45.303V105.909H37.7273V98.3333Z"/><path fill="#000" d="M45.303 98.3333H52.8788V105.909H45.303V98.3333Z"/><path fill="#000" d="M52.8788 98.3333H60.4545V105.909H52.8788V98.3333Z"/><path fill="#000" d="M68.0303 98.3333H75.6061V105.909H68.0303V98.3333Z"/><path fill="#000" d="M75.6061 98.3333H83.1818V105.909H75.6061V98.3333Z"/><path fill="#000" d="M174.091 98.3333H181.667V105.909H174.091V98.3333Z"/><path fill="#000" d="M181.667 98.3333H189.242V105.909H181.667V98.3333Z"/><path fill="#000" d="M189.242 98.3333H196.818V105.909H189.242V98.3333Z"/><path fill="#000" d="M196.818 98.3333H204.394V105.909H196.818V98.3333Z"/><path fill="#000" d="M211.97 98.3333H219.545V105.909H211.97V98.3333Z"/><path fill="#000" d="M219.545 98.3333H227.121V105.909H219.545V98.3333Z"/><path fill="#000" d="M15 105.909H22.5758V113.485H15V105.909Z"/><path fill="#000" d="M30.1515 105.909H37.7273V113.485H30.1515V105.909Z"/><path fill="#000" d="M37.7273 105.909H45.303V113.485H37.7273V105.909Z"/><path fill="#000" d="M45.303 105.909H52.8788V113.485H45.303V105.909Z"/><path fill="#000" d="M52.8788 105.909H60.4545V113.485H52.8788V105.909Z"/><path fill="#000" d="M60.4545 105.909H68.0303V113.485H60.4545V105.909Z"/><path fill="#000" d="M68.0303 105.909H75.6061V113.485H68.0303V105.909Z"/><path fill="#000" d="M75.6061 105.909H83.1818V113.485H75.6061V105.909Z"/><path fill="#000" d="M158.939 105.909H166.515V113.485H158.939V105.909Z"/><path fill="#000" d="M181.667 105.909H189.242V113.485H181.667V105.909Z"/><path fill="#000" d="M189.242 105.909H196.818V113.485H189.242V105.909Z"/><path fill="#000" d="M15 113.485H22.5758V121.061H15V113.485Z"/><path fill="#000" d="M30.1515 113.485H37.7273V121.061H30.1515V113.485Z"/><path fill="#000" d="M37.7273 113.485H45.303V121.061H37.7273V113.485Z"/><path fill="#000" d="M68.0303 113.485H75.6061V121.061H68.0303V113.485Z"/><path fill="#000" d="M83.1818 113.485H90.7576V121.061H83.1818V113.485Z"/><path fill="#000" d="M158.939 113.485H166.515V121.061H158.939V113.485Z"/><path fill="#000" d="M166.515 113.485H174.091V121.061H166.515V113.485Z"/><path fill="#000" d="M174.091 113.485H181.667V121.061H174.091V113.485Z"/><path fill="#000" d="M189.242 113.485H196.818V121.061H189.242V113.485Z"/><path fill="#000" d="M204.394 113.485H211.97V121.061H204.394V113.485Z"/><path fill="#000" d="M219.545 113.485H227.121V121.061H219.545V113.485Z"/><path fill="#000" d="M15 121.061H22.5758V128.636H15V121.061Z"/><path fill="#000" d="M22.5758 121.061H30.1515V128.636H22.5758V121.061Z"/><path fill="#000" d="M30.1515 121.061H37.7273V128.636H30.1515V121.061Z"/><path fill="#000" d="M60.4545 121.061H68.0303V128.636H60.4545V121.061Z"/><path fill="#000" d="M75.6061 121.061H83.1818V128.636H75.6061V121.061Z"/><path fill="#000" d="M166.515 121.061H174.091V128.636H166.515V121.061Z"/><path fill="#000" d="M174.091 121.061H181.667V128.636H174.091V121.061Z"/><path fill="#000" d="M181.667 121.061H189.242V128.636H181.667V121.061Z"/><path fill="#000" d="M227.121 121.061H234.697V128.636H227.121V121.061Z"/><path fill="#000" d="M15 128.636H22.5758V136.212H15V128.636Z"/><path fill="#000" d="M22.5758 128.636H30.1515V136.212H22.5758V128.636Z"/><path fill="#000" d="M37.7273 128.636H45.303V136.212H37.7273V128.636Z"/><path fill="#000" d="M45.303 128.636H52.8788V136.212H45.303V128.636Z"/><path fill="#000" d="M68.0303 128.636H75.6061V136.212H68.0303V128.636Z"/><path fill="#000" d="M83.1818 128.636H90.7576V136.212H83.1818V128.636Z"/><path fill="#000" d="M166.515 128.636H174.091V136.212H166.515V128.636Z"/><path fill="#000" d="M174.091 128.636H181.667V136.212H174.091V128.636Z"/><path fill="#000" d="M181.667 128.636H189.242V136.212H181.667V128.636Z"/><path fill="#000" d="M189.242 128.636H196.818V136.212H189.242V128.636Z"/><path fill="#000" d="M219.545 128.636H227.121V136.212H219.545V128.636Z"/><path fill="#000" d="M30.1515 136.212H37.7273V143.788H30.1515V136.212Z"/><path fill="#000" d="M45.303 136.212H52.8788V143.788H45.303V136.212Z"/><path fill="#000" d="M52.8788 136.212H60.4545V143.788H52.8788V136.212Z"/><path fill="#000" d="M60.4545 136.212H68.0303V143.788H60.4545V136.212Z"/><path fill="#000" d="M68.0303 136.212H75.6061V143.788H68.0303V136.212Z"/><path fill="#000" d="M158.939 136.212H166.515V143.788H158.939V136.212Z"/><path fill="#000" d="M166.515 136.212H174.091V143.788H166.515V136.212Z"/><path fill="#000" d="M174.091 136.212H181.667V143.788H174.091V136.212Z"/><path fill="#000" d="M227.121 136.212H234.697V143.788H227.121V136.212Z"/><path fill="#000" d="M22.5758 143.788H30.1515V151.364H22.5758V143.788Z"/><path fill="#000" d="M37.7273 143.788H45.303V151.364H37.7273V143.788Z"/><path fill="#000" d="M68.0303 143.788H75.6061V151.364H68.0303V143.788Z"/><path fill="#000" d="M75.6061 143.788H83.1818V151.364H75.6061V143.788Z"/><path fill="#000" d="M83.1818 143.788H90.7576V151.364H83.1818V143.788Z"/><path fill="#000" d="M158.939 143.788H166.515V151.364H158.939V143.788Z"/><path fill="#000" d="M166.515 143.788H174.091V151.364H166.515V143.788Z"/><path fill="#000" d="M174.091 143.788H181.667V151.364H174.091V143.788Z"/><path fill="#000" d="M181.667 143.788H189.242V151.364H181.667V143.788Z"/><path fill="#000" d="M204.394 143.788H211.97V151.364H204.394V143.788Z"/><path fill="#000" d="M211.97 143.788H219.545V151.364H211.97V143.788Z"/><path fill="#000" d="M219.545 143.788H227.121V151.364H219.545V143.788Z"/><path fill="#000" d="M227.121 143.788H234.697V151.364H227.121V143.788Z"/><path fill="#000" d="M15 151.364H22.5758V158.939H15V151.364Z"/><path fill="#000" d="M30.1515 151.364H37.7273V158.939H30.1515V151.364Z"/><path fill="#000" d="M52.8788 151.364H60.4545V158.939H52.8788V151.364Z"/><path fill="#000" d="M60.4545 151.364H68.0303V158.939H60.4545V151.364Z"/><path fill="#000" d="M68.0303 151.364H75.6061V158.939H68.0303V151.364Z"/><path fill="#000" d="M75.6061 151.364H83.1818V158.939H75.6061V151.364Z"/><path fill="#000" d="M174.091 151.364H181.667V158.939H174.091V151.364Z"/><path fill="#000" d="M189.242 151.364H196.818V158.939H189.242V151.364Z"/><path fill="#000" d="M196.818 151.364H204.394V158.939H196.818V151.364Z"/><path fill="#000" d="M204.394 151.364H211.97V158.939H204.394V151.364Z"/><path fill="#000" d="M219.545 151.364H227.121V158.939H219.545V151.364Z"/><path fill="#000" d="M227.121 151.364H234.697V158.939H227.121V151.364Z"/><path fill="#000" d="M30.1515 158.939H37.7273V166.515H30.1515V158.939Z"/><path fill="#000" d="M37.7273 158.939H45.303V166.515H37.7273V158.939Z"/><path fill="#000" d="M45.303 158.939H52.8788V166.515H45.303V158.939Z"/><path fill="#000" d="M68.0303 158.939H75.6061V166.515H68.0303V158.939Z"/><path fill="#000" d="M98.3333 158.939H105.909V166.515H98.3333V158.939Z"/><path fill="#000" d="M113.485 158.939H121.061V166.515H113.485V158.939Z"/><path fill="#000" d="M143.788 158.939H151.364V166.515H143.788V158.939Z"/><path fill="#000" d="M151.364 158.939H158.939V166.515H151.364V158.939Z"/><path fill="#000" d="M158.939 158.939H166.515V166.515H158.939V158.939Z"/><path fill="#000" d="M166.515 158.939H174.091V166.515H166.515V158.939Z"/><path fill="#000" d="M196.818 158.939H204.394V166.515H196.818V158.939Z"/><path fill="#000" d="M204.394 158.939H211.97V166.515H204.394V158.939Z"/><path fill="#000" d="M227.121 158.939H234.697V166.515H227.121V158.939Z"/><path fill="#000" d="M15 166.515H22.5758V174.091H15V166.515Z"/><path fill="#000" d="M30.1515 166.515H37.7273V174.091H30.1515V166.515Z"/><path fill="#000" d="M37.7273 166.515H45.303V174.091H37.7273V166.515Z"/><path fill="#000" d="M45.303 166.515H52.8788V174.091H45.303V166.515Z"/><path fill="#000" d="M52.8788 166.515H60.4545V174.091H52.8788V166.515Z"/><path fill="#000" d="M60.4545 166.515H68.0303V174.091H60.4545V166.515Z"/><path fill="#000" d="M90.7576 166.515H98.3333V174.091H90.7576V166.515Z"/><path fill="#000" d="M98.3333 166.515H105.909V174.091H98.3333V166.515Z"/><path fill="#000" d="M105.909 166.515H113.485V174.091H105.909V166.515Z"/><path fill="#000" d="M128.636 166.515H136.212V174.091H128.636V166.515Z"/><path fill="#000" d="M136.212 166.515H143.788V174.091H136.212V166.515Z"/><path fill="#000" d="M158.939 166.515H166.515V174.091H158.939V166.515Z"/><path fill="#000" d="M166.515 166.515H174.091V174.091H166.515V166.515Z"/><path fill="#000" d="M174.091 166.515H181.667V174.091H174.091V166.515Z"/><path fill="#000" d="M181.667 166.515H189.242V174.091H181.667V166.515Z"/><path fill="#000" d="M189.242 166.515H196.818V174.091H189.242V166.515Z"/><path fill="#000" d="M196.818 166.515H204.394V174.091H196.818V166.515Z"/><path fill="#000" d="M211.97 166.515H219.545V174.091H211.97V166.515Z"/><path fill="#000" d="M75.6061 174.091H83.1818V181.667H75.6061V174.091Z"/><path fill="#000" d="M83.1818 174.091H90.7576V181.667H83.1818V174.091Z"/><path fill="#000" d="M105.909 174.091H113.485V181.667H105.909V174.091Z"/><path fill="#000" d="M113.485 174.091H121.061V181.667H113.485V174.091Z"/><path fill="#000" d="M121.061 174.091H128.636V181.667H121.061V174.091Z"/><path fill="#000" d="M136.212 174.091H143.788V181.667H136.212V174.091Z"/><path fill="#000" d="M166.515 174.091H174.091V181.667H166.515V174.091Z"/><path fill="#000" d="M196.818 174.091H204.394V181.667H196.818V174.091Z"/><path fill="#000" d="M227.121 174.091H234.697V181.667H227.121V174.091Z"/><path fill="#000" d="M15 181.667H22.5758V189.242H15V181.667Z"/><path fill="#000" d="M22.5758 181.667H30.1515V189.242H22.5758V181.667Z"/><path fill="#000" d="M30.1515 181.667H37.7273V189.242H30.1515V181.667Z"/><path fill="#000" d="M37.7273 181.667H45.303V189.242H37.7273V181.667Z"/><path fill="#000" d="M45.303 181.667H52.8788V189.242H45.303V181.667Z"/><path fill="#000" d="M52.8788 181.667H60.4545V189.242H52.8788V181.667Z"/><path fill="#000" d="M60.4545 181.667H68.0303V189.242H60.4545V181.667Z"/><path fill="#000" d="M75.6061 181.667H83.1818V189.242H75.6061V181.667Z"/><path fill="#000" d="M83.1818 181.667H90.7576V189.242H83.1818V181.667Z"/><path fill="#000" d="M90.7576 181.667H98.3333V189.242H90.7576V181.667Z"/><path fill="#000" d="M143.788 181.667H151.364V189.242H143.788V181.667Z"/><path fill="#000" d="M166.515 181.667H174.091V189.242H166.515V181.667Z"/><path fill="#000" d="M181.667 181.667H189.242V189.242H181.667V181.667Z"/><path fill="#000" d="M196.818 181.667H204.394V189.242H196.818V181.667Z"/><path fill="#000" d="M204.394 181.667H211.97V189.242H204.394V181.667Z"/><path fill="#000" d="M211.97 181.667H219.545V189.242H211.97V181.667Z"/><path fill="#000" d="M219.545 181.667H227.121V189.242H219.545V181.667Z"/><path fill="#000" d="M15 189.242H22.5758V196.818H15V189.242Z"/><path fill="#000" d="M60.4545 189.242H68.0303V196.818H60.4545V189.242Z"/><path fill="#000" d="M75.6061 189.242H83.1818V196.818H75.6061V189.242Z"/><path fill="#000" d="M90.7576 189.242H98.3333V196.818H90.7576V189.242Z"/><path fill="#000" d="M98.3333 189.242H105.909V196.818H98.3333V189.242Z"/><path fill="#000" d="M136.212 189.242H143.788V196.818H136.212V189.242Z"/><path fill="#000" d="M143.788 189.242H151.364V196.818H143.788V189.242Z"/><path fill="#000" d="M166.515 189.242H174.091V196.818H166.515V189.242Z"/><path fill="#000" d="M196.818 189.242H204.394V196.818H196.818V189.242Z"/><path fill="#000" d="M211.97 189.242H219.545V196.818H211.97V189.242Z"/><path fill="#000" d="M15 196.818H22.5758V204.394H15V196.818Z"/><path fill="#000" d="M30.1515 196.818H37.7273V204.394H30.1515V196.818Z"/><path fill="#000" d="M37.7273 196.818H45.303V204.394H37.7273V196.818Z"/><path fill="#000" d="M45.303 196.818H52.8788V204.394H45.303V196.818Z"/><path fill="#000" d="M60.4545 196.818H68.0303V204.394H60.4545V196.818Z"/><path fill="#000" d="M83.1818 196.818H90.7576V204.394H83.1818V196.818Z"/><path fill="#000" d="M90.7576 196.818H98.3333V204.394H90.7576V196.818Z"/><path fill="#000" d="M105.909 196.818H113.485V204.394H105.909V196.818Z"/><path fill="#000" d="M113.485 196.818H121.061V204.394H113.485V196.818Z"/><path fill="#000" d="M128.636 196.818H136.212V204.394H128.636V196.818Z"/><path fill="#000" d="M166.515 196.818H174.091V204.394H166.515V196.818Z"/><path fill="#000" d="M174.091 196.818H181.667V204.394H174.091V196.818Z"/><path fill="#000" d="M181.667 196.818H189.242V204.394H181.667V196.818Z"/><path fill="#000" d="M189.242 196.818H196.818V204.394H189.242V196.818Z"/><path fill="#000" d="M196.818 196.818H204.394V204.394H196.818V196.818Z"/><path fill="#000" d="M204.394 196.818H211.97V204.394H204.394V196.818Z"/><path fill="#000" d="M219.545 196.818H227.121V204.394H219.545V196.818Z"/><path fill="#000" d="M227.121 196.818H234.697V204.394H227.121V196.818Z"/><path fill="#000" d="M15 204.394H22.5758V211.97H15V204.394Z"/><path fill="#000" d="M30.1515 204.394H37.7273V211.97H30.1515V204.394Z"/><path fill="#000" d="M37.7273 204.394H45.303V211.97H37.7273V204.394Z"/><path fill="#000" d="M45.303 204.394H52.8788V211.97H45.303V204.394Z"/><path fill="#000" d="M60.4545 204.394H68.0303V211.97H60.4545V204.394Z"/><path fill="#000" d="M75.6061 204.394H83.1818V211.97H75.6061V204.394Z"/><path fill="#000" d="M83.1818 204.394H90.7576V211.97H83.1818V204.394Z"/><path fill="#000" d="M90.7576 204.394H98.3333V211.97H90.7576V204.394Z"/><path fill="#000" d="M105.909 204.394H113.485V211.97H105.909V204.394Z"/><path fill="#000" d="M121.061 204.394H128.636V211.97H121.061V204.394Z"/><path fill="#000" d="M128.636 204.394H136.212V211.97H128.636V204.394Z"/><path fill="#000" d="M136.212 204.394H143.788V211.97H136.212V204.394Z"/><path fill="#000" d="M158.939 204.394H166.515V211.97H158.939V204.394Z"/><path fill="#000" d="M166.515 204.394H174.091V211.97H166.515V204.394Z"/><path fill="#000" d="M174.091 204.394H181.667V211.97H174.091V204.394Z"/><path fill="#000" d="M181.667 204.394H189.242V211.97H181.667V204.394Z"/><path fill="#000" d="M196.818 204.394H204.394V211.97H196.818V204.394Z"/><path fill="#000" d="M204.394 204.394H211.97V211.97H204.394V204.394Z"/><path fill="#000" d="M211.97 204.394H219.545V211.97H211.97V204.394Z"/><path fill="#000" d="M227.121 204.394H234.697V211.97H227.121V204.394Z"/><path fill="#000" d="M15 211.97H22.5758V219.545H15V211.97Z"/><path fill="#000" d="M30.1515 211.97H37.7273V219.545H30.1515V211.97Z"/><path fill="#000" d="M37.7273 211.97H45.303V219.545H37.7273V211.97Z"/><path fill="#000" d="M45.303 211.97H52.8788V219.545H45.303V211.97Z"/><path fill="#000" d="M60.4545 211.97H68.0303V219.545H60.4545V211.97Z"/><path fill="#000" d="M83.1818 211.97H90.7576V219.545H83.1818V211.97Z"/><path fill="#000" d="M113.485 211.97H121.061V219.545H113.485V211.97Z"/><path fill="#000" d="M121.061 211.97H128.636V219.545H121.061V211.97Z"/><path fill="#000" d="M143.788 211.97H151.364V219.545H143.788V211.97Z"/><path fill="#000" d="M151.364 211.97H158.939V219.545H151.364V211.97Z"/><path fill="#000" d="M158.939 211.97H166.515V219.545H158.939V211.97Z"/><path fill="#000" d="M166.515 211.97H174.091V219.545H166.515V211.97Z"/><path fill="#000" d="M196.818 211.97H204.394V219.545H196.818V211.97Z"/><path fill="#000" d="M204.394 211.97H211.97V219.545H204.394V211.97Z"/><path fill="#000" d="M211.97 211.97H219.545V219.545H211.97V211.97Z"/><path fill="#000" d="M227.121 211.97H234.697V219.545H227.121V211.97Z"/><path fill="#000" d="M15 219.545H22.5758V227.121H15V219.545Z"/><path fill="#000" d="M60.4545 219.545H68.0303V227.121H60.4545V219.545Z"/><path fill="#000" d="M75.6061 219.545H83.1818V227.121H75.6061V219.545Z"/><path fill="#000" d="M90.7576 219.545H98.3333V227.121H90.7576V219.545Z"/><path fill="#000" d="M128.636 219.545H136.212V227.121H128.636V219.545Z"/><path fill="#000" d="M143.788 219.545H151.364V227.121H143.788V219.545Z"/><path fill="#000" d="M151.364 219.545H158.939V227.121H151.364V219.545Z"/><path fill="#000" d="M158.939 219.545H166.515V227.121H158.939V219.545Z"/><path fill="#000" d="M166.515 219.545H174.091V227.121H166.515V219.545Z"/><path fill="#000" d="M189.242 219.545H196.818V227.121H189.242V219.545Z"/><path fill="#000" d="M219.545 219.545H227.121V227.121H219.545V219.545Z"/><path fill="#000" d="M15 227.121H22.5758V234.697H15V227.121Z"/><path fill="#000" d="M22.5758 227.121H30.1515V234.697H22.5758V227.121Z"/><path fill="#000" d="M30.1515 227.121H37.7273V234.697H30.1515V227.121Z"/><path fill="#000" d="M37.7273 227.121H45.303V234.697H37.7273V227.121Z"/><path fill="#000" d="M45.303 227.121H52.8788V234.697H45.303V227.121Z"/><path fill="#000" d="M52.8788 227.121H60.4545V234.697H52.8788V227.121Z"/><path fill="#000" d="M60.4545 227.121H68.0303V234.697H60.4545V227.121Z"/><path fill="#000" d="M83.1818 227.121H90.7576V234.697H83.1818V227.121Z"/><path fill="#000" d="M90.7576 227.121H98.3333V234.697H90.7576V227.121Z"/><path fill="#000" d="M98.3333 227.121H105.909V234.697H98.3333V227.121Z"/><path fill="#000" d="M105.909 227.121H113.485V234.697H105.909V227.121Z"/><path fill="#000" d="M121.061 227.121H128.636V234.697H121.061V227.121Z"/><path fill="#000" d="M143.788 227.121H151.364V234.697H143.788V227.121Z"/><path fill="#000" d="M158.939 227.121H166.515V234.697H158.939V227.121Z"/><path fill="#000" d="M166.515 227.121H174.091V234.697H166.515V227.121Z"/><path fill="#000" d="M174.091 227.121H181.667V234.697H174.091V227.121Z"/><path fill="#000" d="M196.818 227.121H204.394V234.697H196.818V227.121Z"/><path fill="#000" d="M204.394 227.121H211.97V234.697H204.394V227.121Z"/><path fill="#000" d="M219.545 227.121H227.121V234.697H219.545V227.121Z"/><path stroke="#000" stroke-width=".5" d="M22.5758 15H15V22.5758M22.5758 15V22.5758M22.5758 15H30.1515M22.5758 22.5758H15M22.5758 22.5758H30.1515M22.5758 22.5758V30.1515M15 22.5758V30.1515M30.1515 15V22.5758M30.1515 15H37.7273M30.1515 22.5758H37.7273M37.7273 15V22.5758M37.7273 15H45.303M37.7273 22.5758H45.303M45.303 15V22.5758M45.303 15H52.8788M45.303 22.5758H52.8788M52.8788 15V22.5758M52.8788 15H60.4545M52.8788 22.5758H60.4545M60.4545 15V22.5758M60.4545 15H68.0303V22.5758M60.4545 22.5758H68.0303M60.4545 22.5758V30.1515M68.0303 22.5758V30.1515M105.909 22.5758V15H98.3333V22.5758M105.909 22.5758H98.3333M105.909 22.5758V30.1515M105.909 22.5758H113.485M98.3333 22.5758V30.1515H105.909M121.061 15H113.485V22.5758M121.061 15V22.5758M121.061 15H128.636V22.5758M121.061 22.5758H113.485M121.061 22.5758H128.636M121.061 22.5758V30.1515M113.485 22.5758V30.1515M128.636 22.5758V30.1515H121.061M174.091 22.5758V15H166.515V22.5758M174.091 22.5758H166.515M174.091 22.5758V30.1515H166.515V22.5758M189.242 15H181.667V22.5758M189.242 15V22.5758M189.242 15H196.818M189.242 22.5758H181.667M189.242 22.5758H196.818M189.242 22.5758V30.1515M181.667 22.5758V30.1515M196.818 15V22.5758M196.818 15H204.394M196.818 22.5758H204.394M204.394 15V22.5758M204.394 15H211.97M204.394 22.5758H211.97M211.97 15V22.5758M211.97 15H219.545M211.97 22.5758H219.545M219.545 15V22.5758M219.545 15H227.121M219.545 22.5758H227.121M227.121 15V22.5758M227.121 15H234.697V22.5758M227.121 22.5758H234.697M227.121 22.5758V30.1515M234.697 22.5758V30.1515M22.5758 30.1515H15M22.5758 30.1515V37.7273M15 30.1515V37.7273M68.0303 30.1515H60.4545M68.0303 30.1515V37.7273M60.4545 30.1515V37.7273M105.909 30.1515H113.485M113.485 30.1515H121.061M143.788 30.1515V22.5758H136.212V30.1515H143.788ZM143.788 30.1515H151.364M143.788 30.1515V37.7273M151.364 30.1515H158.939V22.5758H151.364V30.1515ZM151.364 30.1515V37.7273H143.788M189.242 30.1515H181.667M189.242 30.1515V37.7273M181.667 30.1515V37.7273M234.697 30.1515H227.121M234.697 30.1515V37.7273M227.121 30.1515V37.7273M22.5758 37.7273H15M22.5758 37.7273V45.303M15 37.7273V45.303M37.7273 30.1515H30.1515V37.7273M37.7273 30.1515V37.7273M37.7273 30.1515H45.303M37.7273 37.7273H30.1515M37.7273 37.7273H45.303M37.7273 37.7273V45.303M30.1515 37.7273V45.303M45.303 30.1515V37.7273M45.303 30.1515H52.8788V37.7273M45.303 37.7273H52.8788M45.303 37.7273V45.303M52.8788 37.7273V45.303M68.0303 37.7273H60.4545M68.0303 37.7273V45.303M60.4545 37.7273V45.303M83.1818 30.1515H75.6061V37.7273M83.1818 30.1515V37.7273M83.1818 30.1515H90.7576V37.7273M83.1818 37.7273H75.6061M83.1818 37.7273H90.7576M83.1818 37.7273V45.303M75.6061 37.7273V45.303H83.1818M90.7576 37.7273V45.303M90.7576 37.7273H98.3333M143.788 37.7273H136.212M143.788 37.7273V45.303M189.242 37.7273H181.667M189.242 37.7273V45.303M181.667 37.7273V45.303M204.394 30.1515H196.818V37.7273M204.394 30.1515V37.7273M204.394 30.1515H211.97M204.394 37.7273H196.818M204.394 37.7273H211.97M204.394 37.7273V45.303M196.818 37.7273V45.303M211.97 30.1515V37.7273M211.97 30.1515H219.545V37.7273M211.97 37.7273H219.545M211.97 37.7273V45.303M219.545 37.7273V45.303M234.697 37.7273H227.121M234.697 37.7273V45.303M227.121 37.7273V45.303M22.5758 45.303H15M22.5758 45.303V52.8788M15 45.303V52.8788M37.7273 45.303H30.1515M37.7273 45.303H45.303M37.7273 45.303V52.8788M30.1515 45.303V52.8788H37.7273M45.303 45.303H52.8788M45.303 45.303V52.8788M52.8788 45.303V52.8788H45.303M68.0303 45.303H60.4545M68.0303 45.303V52.8788M60.4545 45.303V52.8788M83.1818 45.303H90.7576M83.1818 45.303V52.8788M90.7576 45.303H98.3333M90.7576 45.303V52.8788H83.1818M98.3333 37.7273V45.303M98.3333 37.7273H105.909M98.3333 45.303H105.909M98.3333 45.303V52.8788M105.909 37.7273V45.303M105.909 37.7273H113.485M105.909 45.303H113.485M105.909 45.303V52.8788M113.485 37.7273V45.303M113.485 37.7273H121.061M113.485 45.303H121.061M113.485 45.303V52.8788M121.061 37.7273V45.303M121.061 37.7273H128.636M121.061 45.303H128.636M121.061 45.303V52.8788H113.485M128.636 37.7273V45.303M128.636 37.7273H136.212M128.636 45.303H136.212M128.636 45.303V52.8788M136.212 37.7273V45.303M136.212 45.303H143.788M136.212 45.303V52.8788M143.788 45.303V52.8788M143.788 45.303H151.364M166.515 37.7273H158.939V45.303M166.515 37.7273V45.303M166.515 37.7273H174.091V45.303H166.515M166.515 45.303H158.939M158.939 45.303H151.364M158.939 45.303V52.8788M189.242 45.303H181.667M189.242 45.303V52.8788M181.667 45.303V52.8788M204.394 45.303H196.818M204.394 45.303H211.97M204.394 45.303V52.8788M196.818 45.303V52.8788H204.394M211.97 45.303H219.545M211.97 45.303V52.8788M219.545 45.303V52.8788H211.97M234.697 45.303H227.121M234.697 45.303V52.8788M227.121 45.303V52.8788M22.5758 52.8788H15M22.5758 52.8788V60.4545M15 52.8788V60.4545M37.7273 52.8788H45.303M68.0303 52.8788H60.4545M68.0303 52.8788V60.4545M60.4545 52.8788V60.4545M83.1818 52.8788H75.6061V60.4545M83.1818 52.8788V60.4545M105.909 52.8788H98.3333M105.909 52.8788H113.485M105.909 52.8788V60.4545M98.3333 52.8788V60.4545M136.212 52.8788H128.636M136.212 52.8788H143.788M136.212 52.8788V60.4545M128.636 52.8788V60.4545M143.788 52.8788H151.364M143.788 52.8788V60.4545M151.364 45.303V52.8788M151.364 52.8788H158.939M151.364 52.8788V60.4545M158.939 52.8788V60.4545M158.939 52.8788H166.515V60.4545M189.242 52.8788H181.667M189.242 52.8788V60.4545M181.667 52.8788V60.4545M204.394 52.8788H211.97M234.697 52.8788H227.121M234.697 52.8788V60.4545M227.121 52.8788V60.4545M22.5758 60.4545H15M22.5758 60.4545V68.0303M22.5758 60.4545H30.1515M15 60.4545V68.0303H22.5758M68.0303 60.4545H60.4545M68.0303 60.4545V68.0303H60.4545M60.4545 60.4545H52.8788M60.4545 60.4545V68.0303M83.1818 60.4545H75.6061M83.1818 60.4545V68.0303M75.6061 60.4545V68.0303M105.909 60.4545H98.3333M105.909 60.4545H113.485V68.0303M105.909 60.4545V68.0303M98.3333 60.4545H90.7576V68.0303H98.3333V60.4545ZM136.212 60.4545H128.636M136.212 60.4545H143.788M136.212 60.4545V68.0303M128.636 60.4545H121.061V68.0303M128.636 60.4545V68.0303M151.364 60.4545H143.788M151.364 60.4545H158.939M151.364 60.4545V68.0303H158.939M143.788 60.4545V68.0303M158.939 60.4545H166.515M158.939 60.4545V68.0303M166.515 60.4545H174.091V68.0303M166.515 60.4545V68.0303M189.242 60.4545H181.667M189.242 60.4545V68.0303M189.242 60.4545H196.818M181.667 60.4545V68.0303H189.242M234.697 60.4545H227.121M234.697 60.4545V68.0303H227.121M227.121 60.4545H219.545M227.121 60.4545V68.0303M22.5758 68.0303H30.1515M30.1515 60.4545V68.0303M30.1515 60.4545H37.7273M30.1515 68.0303H37.7273M37.7273 60.4545V68.0303M37.7273 60.4545H45.303M37.7273 68.0303H45.303M45.303 60.4545V68.0303M45.303 60.4545H52.8788M45.303 68.0303H52.8788M52.8788 60.4545V68.0303M52.8788 68.0303H60.4545M83.1818 68.0303H75.6061M83.1818 68.0303V75.6061M75.6061 68.0303V75.6061M113.485 68.0303H105.909M113.485 68.0303V75.6061M105.909 68.0303V75.6061M128.636 68.0303H121.061M128.636 68.0303V75.6061M128.636 68.0303H136.212M121.061 68.0303V75.6061M143.788 68.0303H136.212M143.788 68.0303V75.6061M136.212 68.0303V75.6061M158.939 68.0303H166.515M158.939 68.0303V75.6061H166.515M174.091 68.0303H166.515M174.091 68.0303V75.6061M166.515 68.0303V75.6061M189.242 68.0303H196.818M196.818 60.4545V68.0303M196.818 60.4545H204.394M196.818 68.0303H204.394M204.394 60.4545V68.0303M204.394 60.4545H211.97M204.394 68.0303H211.97M211.97 60.4545V68.0303M211.97 60.4545H219.545M211.97 68.0303H219.545M219.545 60.4545V68.0303M219.545 68.0303H227.121M83.1818 75.6061H75.6061M83.1818 75.6061V83.1818M75.6061 75.6061H68.0303M75.6061 75.6061V83.1818M113.485 75.6061H105.909M113.485 75.6061V83.1818M113.485 75.6061H121.061M105.909 75.6061H98.3333M105.909 75.6061V83.1818M128.636 75.6061H121.061M128.636 75.6061H136.212M128.636 75.6061V83.1818M121.061 75.6061V83.1818M136.212 75.6061H143.788M136.212 75.6061V83.1818M143.788 75.6061V83.1818M143.788 75.6061H151.364V83.1818H143.788M166.515 75.6061H174.091M174.091 75.6061H181.667M174.091 75.6061V83.1818M30.1515 83.1818V75.6061H22.5758V83.1818H30.1515ZM30.1515 83.1818H37.7273M30.1515 83.1818V90.7576M37.7273 83.1818H45.303V75.6061H37.7273V83.1818ZM37.7273 83.1818V90.7576M60.4545 75.6061H52.8788V83.1818H60.4545M60.4545 75.6061V83.1818M60.4545 75.6061H68.0303M60.4545 83.1818H68.0303M68.0303 75.6061V83.1818M68.0303 83.1818H75.6061M68.0303 83.1818V90.7576M75.6061 83.1818H83.1818M75.6061 83.1818V90.7576M83.1818 83.1818V90.7576M98.3333 75.6061H90.7576V83.1818H98.3333M98.3333 75.6061V83.1818M98.3333 83.1818H105.909M105.909 83.1818H113.485M113.485 83.1818H121.061M113.485 83.1818V90.7576H121.061V83.1818M121.061 83.1818H128.636M128.636 83.1818H136.212M128.636 83.1818V90.7576H136.212V83.1818M143.788 83.1818H136.212M181.667 75.6061V83.1818M181.667 75.6061H189.242M181.667 83.1818H174.091M181.667 83.1818H189.242M181.667 83.1818V90.7576M174.091 83.1818H166.515M174.091 83.1818V90.7576M189.242 75.6061V83.1818M189.242 75.6061H196.818V83.1818H189.242M189.242 83.1818V90.7576M211.97 75.6061H204.394V83.1818H211.97M211.97 75.6061V83.1818M211.97 75.6061H219.545V83.1818M211.97 83.1818H219.545M211.97 83.1818V90.7576M219.545 83.1818V90.7576M234.697 83.1818V75.6061H227.121V83.1818M234.697 83.1818H227.121M234.697 83.1818V90.7576H227.121M227.121 83.1818V90.7576M37.7273 90.7576H30.1515M37.7273 90.7576V98.3333M30.1515 90.7576H22.5758V98.3333H30.1515M30.1515 90.7576V98.3333M75.6061 90.7576H68.0303M75.6061 90.7576H83.1818M75.6061 90.7576V98.3333M68.0303 90.7576H60.4545V98.3333M68.0303 90.7576V98.3333M83.1818 90.7576H90.7576V98.3333H83.1818M83.1818 90.7576V98.3333M166.515 83.1818H158.939V90.7576H166.515M166.515 83.1818V90.7576M166.515 90.7576H174.091M166.515 90.7576V98.3333H174.091M174.091 90.7576V98.3333M189.242 90.7576H181.667M189.242 90.7576V98.3333M181.667 90.7576V98.3333M219.545 90.7576H211.97M219.545 90.7576H227.121M219.545 90.7576V98.3333M211.97 90.7576H204.394V98.3333M211.97 90.7576V98.3333M227.121 90.7576V98.3333M30.1515 98.3333H37.7273M30.1515 98.3333V105.909M37.7273 98.3333V105.909M37.7273 98.3333H45.303M52.8788 98.3333V90.7576H45.303V98.3333M52.8788 98.3333H45.303M52.8788 98.3333V105.909M52.8788 98.3333H60.4545M45.303 98.3333V105.909M68.0303 98.3333H60.4545M68.0303 98.3333H75.6061M68.0303 98.3333V105.909M60.4545 98.3333V105.909M75.6061 98.3333V105.909M75.6061 98.3333H83.1818M83.1818 98.3333V105.909M174.091 98.3333H181.667M174.091 98.3333V105.909H181.667M189.242 98.3333H181.667M189.242 98.3333V105.909M189.242 98.3333H196.818M181.667 98.3333V105.909M211.97 98.3333H204.394M211.97 98.3333H219.545M211.97 98.3333V105.909H219.545M204.394 98.3333H196.818M204.394 98.3333V105.909H196.818M227.121 98.3333H219.545M227.121 98.3333V105.909H219.545M219.545 98.3333V105.909M37.7273 105.909H30.1515M37.7273 105.909H45.303M37.7273 105.909V113.485M30.1515 105.909V113.485M45.303 105.909H52.8788M45.303 105.909V113.485M52.8788 105.909H60.4545M52.8788 105.909V113.485M60.4545 105.909V113.485M60.4545 105.909H68.0303M75.6061 105.909H68.0303M75.6061 105.909H83.1818M75.6061 105.909V113.485M68.0303 105.909V113.485M83.1818 105.909V113.485M181.667 105.909H189.242M181.667 105.909V113.485M189.242 105.909H196.818M189.242 105.909V113.485M196.818 98.3333V105.909M196.818 105.909V113.485M22.5758 113.485V105.909H15V113.485M22.5758 113.485H15M22.5758 113.485V121.061M15 113.485V121.061M37.7273 113.485H30.1515M37.7273 113.485H45.303M37.7273 113.485V121.061M30.1515 113.485V121.061M45.303 113.485H52.8788M45.303 113.485V121.061H37.7273M52.8788 113.485H60.4545M60.4545 113.485H68.0303M68.0303 113.485H75.6061M68.0303 113.485V121.061M75.6061 113.485H83.1818M75.6061 113.485V121.061M83.1818 113.485H90.7576V121.061H83.1818M83.1818 113.485V121.061M166.515 113.485V105.909H158.939V113.485M166.515 113.485H158.939M166.515 113.485V121.061M166.515 113.485H174.091M158.939 113.485V121.061H166.515M189.242 113.485H181.667M189.242 113.485H196.818M189.242 113.485V121.061M181.667 113.485H174.091M181.667 113.485V121.061M196.818 113.485V121.061H189.242M22.5758 121.061H15M22.5758 121.061V128.636M22.5758 121.061H30.1515M15 121.061V128.636M37.7273 121.061H30.1515M37.7273 121.061V128.636M30.1515 121.061V128.636M75.6061 121.061H68.0303M75.6061 121.061H83.1818M75.6061 121.061V128.636M68.0303 121.061H60.4545V128.636H68.0303M68.0303 121.061V128.636M83.1818 121.061V128.636M166.515 121.061H174.091M166.515 121.061V128.636M174.091 113.485V121.061M174.091 121.061H181.667M174.091 121.061V128.636M181.667 121.061V128.636M181.667 121.061H189.242M189.242 121.061V128.636M227.121 121.061V113.485H219.545V121.061H227.121ZM227.121 121.061H234.697V128.636H227.121M227.121 121.061V128.636M22.5758 128.636H15M22.5758 128.636H30.1515M22.5758 128.636V136.212M15 128.636V136.212H22.5758M30.1515 128.636H37.7273M30.1515 128.636V136.212M37.7273 128.636H45.303M37.7273 128.636V136.212M68.0303 128.636H75.6061M68.0303 128.636V136.212M83.1818 128.636H75.6061M83.1818 128.636H90.7576V136.212H83.1818V128.636ZM75.6061 128.636V136.212M174.091 128.636H166.515M174.091 128.636H181.667M174.091 128.636V136.212M166.515 128.636V136.212M181.667 128.636H189.242M181.667 128.636V136.212M189.242 128.636V136.212M189.242 128.636H196.818V136.212H189.242M227.121 128.636H219.545V136.212H227.121M227.121 128.636V136.212M22.5758 136.212H30.1515M30.1515 136.212H37.7273M30.1515 136.212V143.788M45.303 128.636V136.212M45.303 128.636H52.8788V136.212M45.303 136.212H37.7273M45.303 136.212H52.8788M45.303 136.212V143.788M37.7273 136.212V143.788M52.8788 136.212V143.788M52.8788 136.212H60.4545M75.6061 136.212H68.0303M75.6061 136.212V143.788M68.0303 136.212H60.4545M68.0303 136.212V143.788M174.091 136.212H166.515M174.091 136.212H181.667M174.091 136.212V143.788M166.515 136.212H158.939V143.788M166.515 136.212V143.788M181.667 136.212H189.242M181.667 136.212V143.788M227.121 136.212H234.697V143.788M227.121 136.212V143.788M37.7273 143.788H30.1515M37.7273 143.788H45.303M37.7273 143.788V151.364M30.1515 143.788H22.5758V151.364M30.1515 143.788V151.364M52.8788 143.788H45.303M52.8788 143.788H60.4545M45.303 143.788V151.364H37.7273M60.4545 136.212V143.788M60.4545 143.788H68.0303M68.0303 143.788H75.6061M68.0303 143.788V151.364M75.6061 143.788V151.364M75.6061 143.788H83.1818M166.515 143.788H158.939M166.515 143.788H174.091M166.515 143.788V151.364M158.939 143.788V151.364H166.515M174.091 143.788H181.667M174.091 143.788V151.364M181.667 143.788V151.364M181.667 143.788H189.242V151.364M234.697 143.788H227.121M234.697 143.788V151.364M227.121 143.788H219.545M227.121 143.788V151.364M30.1515 151.364H22.5758M30.1515 151.364H37.7273M30.1515 151.364V158.939M22.5758 151.364H15V158.939H22.5758V151.364ZM37.7273 151.364V158.939M75.6061 151.364H68.0303M75.6061 151.364H83.1818M75.6061 151.364V158.939M68.0303 151.364H60.4545M68.0303 151.364V158.939M83.1818 143.788V151.364M83.1818 143.788H90.7576V151.364H83.1818M83.1818 151.364V158.939H75.6061M166.515 151.364H174.091M174.091 151.364H181.667M174.091 151.364V158.939M181.667 151.364H189.242M181.667 151.364V158.939H174.091M189.242 151.364H196.818M189.242 151.364V158.939H196.818M211.97 143.788H204.394V151.364M211.97 143.788V151.364M211.97 143.788H219.545M211.97 151.364H204.394M211.97 151.364H219.545M211.97 151.364V158.939M204.394 151.364H196.818M204.394 151.364V158.939M219.545 143.788V151.364M219.545 151.364H227.121M219.545 151.364V158.939H227.121M227.121 151.364H234.697M227.121 151.364V158.939M234.697 151.364V158.939M37.7273 158.939H30.1515M37.7273 158.939V166.515M37.7273 158.939H45.303M30.1515 158.939V166.515M60.4545 151.364H52.8788V158.939M60.4545 151.364V158.939M60.4545 158.939H52.8788M60.4545 158.939H68.0303M52.8788 158.939H45.303M52.8788 158.939V166.515M68.0303 158.939H75.6061M68.0303 158.939V166.515M75.6061 158.939V166.515H68.0303M174.091 158.939H166.515M174.091 158.939V166.515M196.818 151.364V158.939M196.818 158.939H204.394M196.818 158.939V166.515M204.394 158.939H211.97M204.394 158.939V166.515M211.97 158.939V166.515M227.121 158.939H234.697M227.121 158.939V166.515H234.697V158.939M37.7273 166.515H30.1515M37.7273 166.515H45.303M37.7273 166.515V174.091M30.1515 166.515V174.091H37.7273M45.303 158.939V166.515M45.303 166.515H52.8788M45.303 166.515V174.091M52.8788 166.515V174.091M52.8788 166.515H60.4545M68.0303 166.515H60.4545M68.0303 166.515V174.091H60.4545M105.909 166.515V158.939H98.3333V166.515M105.909 166.515H98.3333M105.909 166.515V174.091M105.909 166.515H113.485M98.3333 166.515H90.7576V174.091M98.3333 166.515V174.091M113.485 166.515H121.061V158.939H113.485V166.515ZM113.485 166.515V174.091M151.364 158.939H143.788V166.515M151.364 158.939V166.515M151.364 158.939H158.939M151.364 166.515H143.788M151.364 166.515H158.939M143.788 166.515H136.212M143.788 166.515V174.091M158.939 158.939V166.515M158.939 158.939H166.515M158.939 166.515H166.515M158.939 166.515V174.091H166.515M166.515 158.939V166.515M166.515 166.515H174.091M166.515 166.515V174.091M174.091 166.515V174.091M174.091 166.515H181.667M204.394 166.515H196.818M204.394 166.515H211.97M204.394 166.515V174.091M196.818 166.515H189.242M196.818 166.515V174.091M211.97 166.515H219.545V174.091H211.97V166.515ZM37.7273 174.091H45.303M45.303 174.091H52.8788M52.8788 174.091H60.4545M60.4545 166.515V174.091M98.3333 174.091H90.7576M98.3333 174.091H105.909M90.7576 174.091H83.1818M90.7576 174.091V181.667M105.909 174.091H113.485M105.909 174.091V181.667H113.485M113.485 174.091V181.667M113.485 174.091H121.061M136.212 166.515H128.636V174.091M136.212 166.515V174.091M136.212 174.091H128.636M136.212 174.091H143.788M136.212 174.091V181.667H143.788M128.636 174.091H121.061M128.636 174.091V181.667H121.061M143.788 174.091V181.667M166.515 174.091H174.091M166.515 174.091V181.667M174.091 174.091H181.667M174.091 174.091V181.667M181.667 166.515V174.091M181.667 166.515H189.242M181.667 174.091H189.242M189.242 166.515V174.091M189.242 174.091H196.818M196.818 174.091H204.394M196.818 174.091V181.667M204.394 174.091V181.667M83.1818 174.091H75.6061V181.667M83.1818 174.091V181.667M83.1818 181.667H75.6061M83.1818 181.667H90.7576M83.1818 181.667V189.242M75.6061 181.667V189.242M90.7576 181.667V189.242M90.7576 181.667H98.3333V189.242M113.485 181.667H121.061M121.061 174.091V181.667M143.788 181.667H151.364V189.242M143.788 181.667V189.242M174.091 181.667H166.515M174.091 181.667V189.242M166.515 181.667V189.242M204.394 181.667H196.818M204.394 181.667V189.242M204.394 181.667H211.97M196.818 181.667V189.242M227.121 181.667H234.697V174.091H227.121V181.667ZM227.121 181.667H219.545M227.121 181.667V189.242H219.545M22.5758 181.667H15V189.242M22.5758 181.667V189.242M22.5758 181.667H30.1515M22.5758 189.242H15M22.5758 189.242H30.1515M22.5758 189.242V196.818M15 189.242V196.818M30.1515 181.667V189.242M30.1515 181.667H37.7273M30.1515 189.242H37.7273M37.7273 181.667V189.242M37.7273 181.667H45.303M37.7273 189.242H45.303M45.303 181.667V189.242M45.303 181.667H52.8788M45.303 189.242H52.8788M52.8788 181.667V189.242M52.8788 181.667H60.4545M52.8788 189.242H60.4545M60.4545 181.667V189.242M60.4545 181.667H68.0303V189.242M60.4545 189.242H68.0303M60.4545 189.242V196.818M68.0303 189.242V196.818M83.1818 189.242H75.6061M83.1818 189.242H90.7576M83.1818 189.242V196.818M75.6061 189.242V196.818H83.1818M90.7576 189.242H98.3333M90.7576 189.242V196.818M98.3333 189.242V196.818M98.3333 189.242H105.909V196.818M151.364 189.242H143.788M151.364 189.242V196.818H143.788M143.788 189.242H136.212V196.818M143.788 189.242V196.818M174.091 189.242H166.515M174.091 189.242V196.818M166.515 189.242V196.818M204.394 189.242H196.818M204.394 189.242H211.97M204.394 189.242V196.818M196.818 189.242V196.818M211.97 181.667V189.242M211.97 181.667H219.545M211.97 189.242H219.545M211.97 189.242V196.818M219.545 181.667V189.242M219.545 189.242V196.818M22.5758 196.818H15M22.5758 196.818V204.394M15 196.818V204.394M68.0303 196.818H60.4545M68.0303 196.818V204.394M60.4545 196.818V204.394M83.1818 196.818H90.7576M83.1818 196.818V204.394M98.3333 196.818H90.7576M98.3333 196.818H105.909M98.3333 196.818V204.394M90.7576 196.818V204.394M105.909 196.818H113.485M105.909 196.818V204.394M143.788 196.818H136.212M136.212 196.818H128.636V204.394M136.212 196.818V204.394M174.091 196.818H166.515M174.091 196.818V204.394M174.091 196.818H181.667M166.515 196.818V204.394M204.394 196.818H196.818M204.394 196.818V204.394M204.394 196.818H211.97M196.818 196.818H189.242M196.818 196.818V204.394M219.545 196.818H211.97M219.545 196.818H227.121M219.545 196.818V204.394M211.97 196.818V204.394M22.5758 204.394H15M22.5758 204.394V211.97M15 204.394V211.97M37.7273 196.818H30.1515V204.394M37.7273 196.818V204.394M37.7273 196.818H45.303M37.7273 204.394H30.1515M37.7273 204.394H45.303M37.7273 204.394V211.97M30.1515 204.394V211.97M45.303 196.818V204.394M45.303 196.818H52.8788V204.394M45.303 204.394H52.8788M45.303 204.394V211.97M52.8788 204.394V211.97M68.0303 204.394H60.4545M68.0303 204.394V211.97M60.4545 204.394V211.97M90.7576 204.394H83.1818M90.7576 204.394H98.3333M90.7576 204.394V211.97M83.1818 204.394H75.6061V211.97H83.1818M83.1818 204.394V211.97M98.3333 204.394V211.97H90.7576M113.485 196.818V204.394M113.485 196.818H121.061V204.394M113.485 204.394H105.909M113.485 204.394H121.061M113.485 204.394V211.97M105.909 204.394V211.97H113.485M121.061 204.394H128.636M121.061 204.394V211.97M136.212 204.394H128.636M136.212 204.394V211.97M136.212 204.394H143.788V211.97M128.636 204.394V211.97M174.091 204.394H166.515M174.091 204.394H181.667M174.091 204.394V211.97M166.515 204.394H158.939V211.97M166.515 204.394V211.97M181.667 196.818V204.394M181.667 196.818H189.242M181.667 204.394H189.242M181.667 204.394V211.97M189.242 196.818V204.394M189.242 204.394H196.818M189.242 204.394V211.97H181.667M196.818 204.394H204.394M196.818 204.394V211.97M204.394 204.394H211.97M204.394 204.394V211.97M211.97 204.394V211.97M211.97 204.394H219.545M227.121 196.818V204.394M227.121 196.818H234.697V204.394M227.121 204.394H219.545M227.121 204.394H234.697M227.121 204.394V211.97M219.545 204.394V211.97M234.697 204.394V211.97M22.5758 211.97H15M22.5758 211.97V219.545M15 211.97V219.545M37.7273 211.97H30.1515M37.7273 211.97H45.303M37.7273 211.97V219.545M30.1515 211.97V219.545H37.7273M45.303 211.97H52.8788M45.303 211.97V219.545M52.8788 211.97V219.545H45.303M68.0303 211.97H60.4545M68.0303 211.97V219.545M60.4545 211.97V219.545M83.1818 211.97H90.7576M83.1818 211.97V219.545M90.7576 211.97V219.545M113.485 211.97H121.061M113.485 211.97V219.545H121.061M128.636 211.97H121.061M128.636 211.97H136.212M128.636 211.97V219.545M121.061 211.97V219.545M136.212 211.97H143.788M143.788 211.97H151.364M143.788 211.97V219.545M166.515 211.97H158.939M166.515 211.97H174.091M166.515 211.97V219.545M158.939 211.97H151.364M158.939 211.97V219.545M174.091 211.97H181.667M174.091 211.97V219.545M204.394 211.97H196.818M204.394 211.97H211.97M204.394 211.97V219.545M196.818 211.97V219.545M211.97 211.97H219.545M211.97 211.97V219.545M219.545 211.97V219.545M234.697 211.97H227.121M234.697 211.97V219.545H227.121M227.121 211.97V219.545M22.5758 219.545H15M22.5758 219.545V227.121M15 219.545V227.121M37.7273 219.545H45.303M68.0303 219.545H60.4545M68.0303 219.545V227.121M60.4545 219.545V227.121M90.7576 219.545H83.1818M90.7576 219.545H98.3333V227.121M90.7576 219.545V227.121M83.1818 219.545H75.6061V227.121H83.1818M83.1818 219.545V227.121M121.061 219.545H128.636M128.636 219.545H136.212V227.121H128.636M128.636 219.545V227.121M151.364 211.97V219.545M151.364 219.545H143.788M151.364 219.545H158.939M151.364 219.545V227.121M143.788 219.545V227.121M158.939 219.545H166.515M158.939 219.545V227.121M166.515 219.545H174.091M166.515 219.545V227.121M174.091 219.545V227.121M204.394 219.545H196.818M204.394 219.545H211.97M196.818 219.545H189.242V227.121H196.818M196.818 219.545V227.121M211.97 219.545H219.545M219.545 219.545H227.121M219.545 219.545V227.121M227.121 219.545V227.121M22.5758 227.121H15M22.5758 227.121V234.697M22.5758 227.121H30.1515M15 227.121V234.697H22.5758M68.0303 227.121H60.4545M68.0303 227.121V234.697H60.4545M60.4545 227.121H52.8788M60.4545 227.121V234.697M83.1818 227.121H90.7576M83.1818 227.121V234.697H90.7576M98.3333 227.121H90.7576M98.3333 227.121V234.697M98.3333 227.121H105.909M90.7576 227.121V234.697M128.636 227.121H121.061V234.697H128.636V227.121ZM151.364 227.121H143.788M151.364 227.121H158.939M151.364 227.121V234.697H143.788V227.121M158.939 227.121H166.515M158.939 227.121V234.697H166.515M166.515 227.121H174.091M166.515 227.121V234.697M174.091 227.121V234.697M174.091 227.121H181.667V234.697H174.091M196.818 227.121H204.394M196.818 227.121V234.697H204.394M227.121 227.121H219.545M227.121 227.121V234.697H219.545V227.121M22.5758 234.697H30.1515M30.1515 227.121V234.697M30.1515 227.121H37.7273M30.1515 234.697H37.7273M37.7273 227.121V234.697M37.7273 227.121H45.303M37.7273 234.697H45.303M45.303 227.121V234.697M45.303 227.121H52.8788M45.303 234.697H52.8788M52.8788 227.121V234.697M52.8788 234.697H60.4545M90.7576 234.697H98.3333M98.3333 234.697H105.909M105.909 227.121V234.697M105.909 227.121H113.485V234.697H105.909M166.515 234.697H174.091M204.394 227.121V234.697M204.394 227.121H211.97V234.697H204.394M75.6061 15H83.1818V22.5758H75.6061V15ZM204.394 113.485H211.97V121.061H204.394V113.485ZM15 166.515H22.5758V174.091H15V166.515ZM181.667 181.667H189.242V189.242H181.667V181.667Z"/></svg>